<?xml version="1.0" standalone="no"?>
<!DOCTYPE svg PUBLIC "-//W3C//DTD SVG 20010904//EN"
 "http://www.w3.org/TR/2001/REC-SVG-20010904/DTD/svg10.dtd">
<svg version="1.0" xmlns="http://www.w3.org/2000/svg"
 width="1080.000000pt" height="1080.000000pt" viewBox="0 0 1080.000000 1080.000000"
 preserveAspectRatio="xMidYMid meet">
<metadata>
Created by potrace 1.14, written by Peter Selinger 2001-2017
</metadata>
<g transform="translate(0.000000,1080.000000) scale(0.100000,-0.100000)"
fill="#000000" stroke="none">
<path d="M7442 7730 c-39 -9 -106 -52 -138 -89 -13 -14 -39 -57 -58 -96 -32
-66 -37 -71 -86 -88 -105 -37 -159 -125 -249 -402 -29 -88 -56 -169 -61 -180
-5 -11 -113 -335 -240 -720 -128 -385 -236 -704 -240 -708 -4 -5 -11 4 -14 20
-7 29 -256 898 -423 1478 -90 315 -115 395 -134 440 -52 125 -73 160 -118 205
-88 88 -188 120 -360 115 -221 -6 -343 -103 -415 -330 -15 -49 -230 -794 -267
-927 -44 -157 -61 -218 -144 -503 -47 -165 -98 -340 -112 -390 -14 -49 -38
-133 -53 -185 -16 -52 -30 -104 -32 -115 -2 -12 -14 13 -30 60 -15 44 -134
400 -266 790 -132 391 -272 807 -312 925 -72 215 -103 289 -144 345 -12 17
-30 53 -40 80 -51 139 -126 234 -208 261 -49 16 -157 16 -231 -1 -127 -27
-304 -106 -368 -162 -58 -52 -74 -96 -73 -208 0 -106 20 -195 85 -380 39 -114
185 -535 206 -595 8 -25 83 -241 165 -480 83 -239 174 -505 203 -590 30 -85
90 -261 135 -390 45 -129 110 -318 145 -420 35 -102 82 -239 105 -305 23 -66
66 -191 97 -279 92 -266 151 -359 265 -417 119 -61 356 -52 461 17 62 41 126
114 158 181 24 49 170 499 184 563 1 8 19 67 40 130 20 63 41 131 47 150 5 19
12 42 15 50 3 8 7 20 9 27 1 7 12 45 25 85 13 40 24 75 24 78 1 3 8 28 17 55
9 28 41 131 71 230 31 99 92 299 137 445 44 146 88 287 97 315 l16 50 18 -55
c35 -112 99 -318 133 -430 44 -144 215 -695 228 -735 5 -16 13 -43 18 -60 41
-153 195 -627 223 -686 26 -53 53 -91 93 -129 31 -29 64 -70 73 -89 66 -146
215 -234 396 -233 107 0 172 14 237 49 89 49 158 144 207 289 11 32 59 172
107 309 47 138 95 275 105 305 10 30 34 100 53 155 19 55 60 174 91 265 31 91
76 221 100 290 24 69 67 193 95 275 28 83 54 157 57 165 3 8 7 20 9 25 1 6 44
129 94 275 143 412 266 770 325 940 29 85 58 167 64 183 24 62 51 191 57 269
5 71 2 94 -19 160 -42 129 -76 166 -222 238 -155 77 -333 114 -433 90z"/>
</g>
</svg>
